<?xml version="1.0" encoding="UTF-8"?>
<svg width="700pt" height="700pt" version="1.1" viewBox="0 0 700 700" xmlns="http://www.w3.org/2000/svg" xmlns:xlink="http://www.w3.org/1999/xlink">
 <defs>
  <symbol id="n" overflow="visible">
   <path d="m34.734-2.0781c-1.7812 0.92969-3.6484 1.625-5.5938 2.0938-1.9375 0.47656-3.9648 0.71875-6.0781 0.71875-6.293 0-11.281-1.7578-14.969-5.2812-3.6797-3.5195-5.5156-8.2891-5.5156-14.312 0-6.0508 1.8359-10.832 5.5156-14.344 3.6875-3.5195 8.6758-5.2812 14.969-5.2812 2.1133 0 4.1406 0.23438 6.0781 0.70312 1.9453 0.46875 3.8125 1.1719 5.5938 2.1094v7.8125c-1.8047-1.2266-3.5859-2.1289-5.3438-2.7031-1.75-0.57031-3.5938-0.85938-5.5312-0.85938-3.4805 0-6.2188 1.1172-8.2188 3.3438-1.9922 2.2305-2.9844 5.3047-2.9844 9.2188 0 3.8984 0.99219 6.9609 2.9844 9.1875 2 2.2305 4.7383 3.3438 8.2188 3.3438 1.9375 0 3.7812-0.28516 5.5312-0.85938 1.7578-0.57031 3.5391-1.4766 5.3438-2.7188z"/>
  </symbol>
  <symbol id="j" overflow="visible">
   <path d="m25.422-20.641c-0.79297-0.36328-1.5859-0.63281-2.375-0.8125-0.78125-0.17578-1.5703-0.26562-2.3594-0.26562-2.3359 0-4.1328 0.74609-5.3906 2.2344-1.25 1.4922-1.875 3.6328-1.875 6.4219v13.062h-9.0625v-28.359h9.0625v4.6562c1.1641-1.8516 2.5039-3.207 4.0156-4.0625 1.5078-0.85156 3.3164-1.2812 5.4219-1.2812 0.3125 0 0.64453 0.015625 1 0.046875 0.35156 0.023438 0.86328 0.074219 1.5312 0.15625z"/>
  </symbol>
  <symbol id="a" overflow="visible">
   <path d="m32.672-14.25v2.5781h-21.203c0.21875 2.125 0.98438 3.7188 2.2969 4.7812 1.3203 1.0625 3.1641 1.5938 5.5312 1.5938 1.9062 0 3.8594-0.28125 5.8594-0.84375s4.0547-1.4141 6.1719-2.5625v6.9844c-2.1484 0.8125-4.293 1.4219-6.4375 1.8281-2.1484 0.41406-4.293 0.625-6.4375 0.625-5.125 0-9.1094-1.3008-11.953-3.9062-2.8438-2.6133-4.2656-6.2734-4.2656-10.984 0-4.625 1.3945-8.2578 4.1875-10.906 2.7891-2.6562 6.6328-3.9844 11.531-3.9844 4.457 0 8.0234 1.3438 10.703 4.0312 2.6758 2.6875 4.0156 6.2773 4.0156 10.766zm-9.3281-3.0156c0-1.7266-0.50781-3.1172-1.5156-4.1719-1-1.0508-2.3086-1.5781-3.9219-1.5781-1.7617 0-3.1875 0.49609-4.2812 1.4844-1.0938 0.98047-1.7773 2.4023-2.0469 4.2656z"/>
  </symbol>
  <symbol id="i" overflow="visible">
   <path d="m17.062-12.766c-1.8867 0-3.3086 0.32422-4.2656 0.96875-0.94922 0.63672-1.4219 1.5781-1.4219 2.8281 0 1.1562 0.37891 2.0586 1.1406 2.7031 0.76953 0.64844 1.8359 0.96875 3.2031 0.96875 1.707 0 3.1445-0.60938 4.3125-1.8281 1.1641-1.2266 1.75-2.7578 1.75-4.5938v-1.0469zm13.859-3.4219v16.188h-9.1406v-4.2031c-1.2188 1.7188-2.5898 2.9766-4.1094 3.7656-1.5234 0.78125-3.3711 1.1719-5.5469 1.1719-2.9375 0-5.3242-0.85156-7.1562-2.5625-1.8242-1.7188-2.7344-3.9453-2.7344-6.6875 0-3.3203 1.1406-5.7578 3.4219-7.3125 2.2891-1.5508 5.8828-2.3281 10.781-2.3281h5.3438v-0.70312c0-1.4375-0.57031-2.4883-1.7031-3.1562-1.125-0.66406-2.8906-1-5.2969-1-1.9375 0-3.7461 0.19531-5.4219 0.57812-1.668 0.38672-3.2188 0.96875-4.6562 1.75v-6.9062c1.9453-0.47656 3.8984-0.83594 5.8594-1.0781 1.957-0.25 3.9141-0.375 5.875-0.375 5.1133 0 8.8047 1.0117 11.078 3.0312 2.2695 2.0117 3.4062 5.2891 3.4062 9.8281z"/>
  </symbol>
  <symbol id="h" overflow="visible">
   <path d="m14.25-36.406v8.0469h9.3438v6.4844h-9.3438v12.031c0 1.3125 0.25781 2.2031 0.78125 2.6719 0.53125 0.46094 1.5703 0.6875 3.125 0.6875h4.6562v6.4844h-7.7656c-3.5859 0-6.125-0.74219-7.625-2.2344-1.4922-1.5-2.2344-4.0352-2.2344-7.6094v-12.031h-4.5v-6.4844h4.5v-8.0469z"/>
  </symbol>
  <symbol id="g" overflow="visible">
   <path d="m23.656-24.203v-15.203h9.1094v39.406h-9.1094v-4.1094c-1.25 1.6797-2.6328 2.9062-4.1406 3.6875-1.5 0.76953-3.2344 1.1562-5.2031 1.1562-3.5 0-6.375-1.3828-8.625-4.1562-2.2422-2.7812-3.3594-6.3594-3.3594-10.734s1.1172-7.9453 3.3594-10.719c2.25-2.7812 5.125-4.1719 8.625-4.1719 1.957 0 3.6914 0.39844 5.2031 1.1875 1.5078 0.78125 2.8906 2 4.1406 3.6562zm-5.9844 18.359c1.9453 0 3.4297-0.70703 4.4531-2.125 1.0195-1.4258 1.5312-3.4883 1.5312-6.1875 0-2.6953-0.51172-4.7539-1.5312-6.1719-1.0234-1.4141-2.5078-2.125-4.4531-2.125-1.9297 0-3.4023 0.71094-4.4219 2.125-1.0234 1.418-1.5312 3.4766-1.5312 6.1719 0 2.6992 0.50781 4.7617 1.5312 6.1875 1.0195 1.418 2.4922 2.125 4.4219 2.125z"/>
  </symbol>
  <symbol id="f" overflow="visible">
   <path d="m19.453-5.8438c1.9375 0 3.4141-0.70703 4.4375-2.125 1.0195-1.4258 1.5312-3.4883 1.5312-6.1875 0-2.6953-0.51172-4.7539-1.5312-6.1719-1.0234-1.4141-2.5-2.125-4.4375-2.125-1.9492 0-3.4453 0.71484-4.4844 2.1406-1.0312 1.418-1.5469 3.4688-1.5469 6.1562s0.51562 4.7461 1.5469 6.1719c1.0391 1.4297 2.5352 2.1406 4.4844 2.1406zm-6.0312-18.359c1.25-1.6562 2.6328-2.875 4.1562-3.6562 1.5195-0.78906 3.2656-1.1875 5.2344-1.1875 3.5 0 6.3672 1.3906 8.6094 4.1719 2.25 2.7734 3.375 6.3438 3.375 10.719s-1.125 7.9531-3.375 10.734c-2.2422 2.7734-5.1094 4.1562-8.6094 4.1562-1.9688 0-3.7148-0.39062-5.2344-1.1719-1.5234-0.78906-2.9062-2.0156-4.1562-3.6719v4.1094h-9.0625v-39.406h9.0625z"/>
  </symbol>
  <symbol id="e" overflow="visible">
   <path d="m0.64062-28.359h9.0625l7.6094 19.25 6.4844-19.25h9.0781l-11.938 31.047c-1.1992 3.1562-2.5938 5.3594-4.1875 6.6094-1.5938 1.2578-3.6992 1.8906-6.3125 1.8906h-5.25v-5.9531h2.8438c1.5312 0 2.6445-0.24609 3.3438-0.73438 0.70703-0.49219 1.2539-1.3672 1.6406-2.625l0.25-0.78125z"/>
  </symbol>
  <symbol id="d" overflow="visible">
   <path d="m38.75-2.8125c-2.4375 1.1875-4.9648 2.0781-7.5781 2.6719-2.6172 0.58203-5.3203 0.875-8.1094 0.875-6.293 0-11.281-1.7578-14.969-5.2812-3.6797-3.5195-5.5156-8.2891-5.5156-14.312 0-6.0938 1.875-10.883 5.625-14.375 3.75-3.5 8.8789-5.25 15.391-5.25 2.5195 0 4.9297 0.23438 7.2344 0.70312 2.3008 0.46875 4.4727 1.1719 6.5156 2.1094v7.8125c-2.1055-1.1953-4.1992-2.0859-6.2812-2.6719-2.0859-0.59375-4.1719-0.89062-6.2656-0.89062-3.8867 0-6.8828 1.0859-8.9844 3.25-2.1055 2.168-3.1562 5.2734-3.1562 9.3125 0 4 1.0078 7.0898 3.0312 9.2656 2.0312 2.1797 4.9102 3.2656 8.6406 3.2656 1.0195 0 1.9609-0.0625 2.8281-0.1875 0.875-0.125 1.6562-0.32031 2.3438-0.59375v-7.3438h-5.9531v-6.5312h15.203z"/>
  </symbol>
  <symbol id="c" overflow="visible">
   <path d="m17.859-22.562c-2.0117 0-3.5469 0.72656-4.6094 2.1719-1.0547 1.4375-1.5781 3.5156-1.5781 6.2344s0.52344 4.8047 1.5781 6.25c1.0625 1.4375 2.5977 2.1562 4.6094 2.1562 1.9688 0 3.4727-0.71875 4.5156-2.1562 1.0508-1.4453 1.5781-3.5312 1.5781-6.25s-0.52734-4.7969-1.5781-6.2344c-1.043-1.4453-2.5469-2.1719-4.5156-2.1719zm0-6.4844c4.875 0 8.6797 1.3203 11.422 3.9531 2.75 2.6367 4.125 6.2812 4.125 10.938s-1.375 8.3047-4.125 10.938c-2.7422 2.6367-6.5469 3.9531-11.422 3.9531-4.8984 0-8.7266-1.3164-11.484-3.9531-2.7617-2.6328-4.1406-6.2812-4.1406-10.938s1.3789-8.3008 4.1406-10.938c2.7578-2.6328 6.5859-3.9531 11.484-3.9531z"/>
  </symbol>
  <symbol id="b" overflow="visible">
   <path d="m23.016-39.406v5.9531h-5.0156c-1.2812 0-2.1797 0.23438-2.6875 0.70312-0.5 0.46094-0.75 1.2656-0.75 2.4219v1.9688h7.75v6.4844h-7.75v21.875h-9.0625v-21.875h-4.5156v-6.4844h4.5156v-1.9688c0-3.0938 0.85938-5.3789 2.5781-6.8594 1.7188-1.4766 4.3828-2.2188 8-2.2188z"/>
  </symbol>
  <symbol id="m" overflow="visible">
   <path d="m4.3594-28.359h9.0625v28.359h-9.0625zm0-11.047h9.0625v7.4062h-9.0625z"/>
  </symbol>
  <symbol id="l" overflow="visible">
   <path d="m27.266-27.469v7.3906c-1.2305-0.84375-2.4648-1.4688-3.7031-1.875-1.2422-0.40625-2.5273-0.60938-3.8594-0.60938-2.5312 0-4.5078 0.74219-5.9219 2.2188-1.4062 1.4805-2.1094 3.543-2.1094 6.1875 0 2.6562 0.70312 4.7266 2.1094 6.2031 1.4141 1.4688 3.3906 2.2031 5.9219 2.2031 1.4141 0 2.7578-0.20703 4.0312-0.625 1.2812-0.42578 2.457-1.0508 3.5312-1.875v7.4219c-1.418 0.52344-2.8555 0.91016-4.3125 1.1719-1.4609 0.25781-2.9219 0.39062-4.3906 0.39062-5.1172 0-9.1172-1.3125-12-3.9375-2.8867-2.625-4.3281-6.2734-4.3281-10.953 0-4.6758 1.4414-8.3281 4.3281-10.953 2.8828-2.625 6.8828-3.9375 12-3.9375 1.4883 0 2.9531 0.13281 4.3906 0.39062 1.4453 0.26172 2.8828 0.65625 4.3125 1.1875z"/>
  </symbol>
  <symbol id="k" overflow="visible">
   <path d="m32.875-17.266v17.266h-9.125v-13.219c0-2.4453-0.058594-4.1328-0.17188-5.0625-0.10547-0.92578-0.29297-1.6094-0.5625-2.0469-0.35547-0.59375-0.83984-1.0508-1.4531-1.375-0.60547-0.33203-1.293-0.5-2.0625-0.5-1.8984 0-3.3867 0.73047-4.4688 2.1875-1.0742 1.4609-1.6094 3.4805-1.6094 6.0625v13.953h-9.0625v-28.359h9.0625v4.1562c1.3633-1.6562 2.8125-2.875 4.3438-3.6562 1.5391-0.78906 3.2383-1.1875 5.0938-1.1875 3.2812 0 5.7695 1.0078 7.4688 3.0156 1.6953 2.0117 2.5469 4.9336 2.5469 8.7656z"/>
  </symbol>
 </defs>
 <g>
  <path d="m598.89 404.45h-20.742v-238.52c0-17.156-13.957-31.109-31.109-31.109h-20.742c-5.7305 0-10.371 4.6445-10.371 10.371s4.6367 10.371 10.371 10.371h20.742c5.7227 0 10.371 4.6523 10.371 10.371v238.52l-118.17-0.003907c-6.1758 0-12.145 1.8086-17.258 5.2266l-20.668 13.777c-1.7031 1.1328-3.6875 1.7344-5.7422 1.7344h-91.145c-2.0547 0-4.0391-0.60156-5.7539-1.7422l-20.656-13.773c-5.1289-3.4141-11.094-5.2227-17.262-5.2227h-118.16v-238.52c0-5.7188 4.6523-10.371 10.371-10.371h20.742c5.7266 0 10.371-4.6445 10.371-10.371 0-5.7266-4.6445-10.371-10.371-10.371l-20.742 0.003906c-17.156 0-31.109 13.957-31.109 31.109v238.52h-20.746c-5.7266 0-10.371 4.6445-10.371 10.371 0 40.027 32.562 72.594 72.594 72.594h373.33c40.023 0 72.594-32.562 72.594-72.594 0-5.7305-4.6367-10.371-10.367-10.371zm-62.223 62.223h-373.34c-25.039 0-45.992-17.844-50.809-41.48h148.23c2.0547 0 4.0391 0.60156 5.7539 1.7422l20.656 13.773c5.125 3.4141 11.09 5.2227 17.258 5.2227h91.145c6.1758 0 12.145-1.8086 17.258-5.2266l20.668-13.777c1.7031-1.1328 3.6914-1.7383 5.7461-1.7383h148.23c-4.8203 23.641-25.766 41.484-50.809 41.484zm-31.113-280v-82.965c0-17.156-13.957-31.109-31.109-31.109h-248.89c-17.156 0-31.109 13.957-31.109 31.109v82.965c0 17.156 13.957 31.109 31.109 31.109h248.89c17.156 0 31.109-13.953 31.109-31.109zm-290.37 0v-82.965c0-5.7188 4.6523-10.371 10.371-10.371h248.89c5.7227 0 10.371 4.6523 10.371 10.371v82.965c0 5.7188-4.6484 10.371-10.371 10.371l-248.89-0.003906c-5.7148 0-10.371-4.6523-10.371-10.367zm162.89-54.891-13.41 13.406 13.41 13.41c4.0508 4.0508 4.0508 10.613 0 14.664-2.0273 2.0273-4.6797 3.0391-7.332 3.0391-2.6523 0-5.3086-1.0117-7.332-3.0391l-13.41-13.41-13.41 13.41c-2.0234 2.0273-4.6758 3.0391-7.332 3.0391-2.6523 0-5.3086-1.0117-7.332-3.0391-4.0508-4.0508-4.0508-10.613 0-14.664l13.41-13.41-13.41-13.41c-4.0508-4.0508-4.0508-10.613 0-14.664s10.613-4.0508 14.664 0l13.41 13.41 13.41-13.41c4.0508-4.0508 10.613-4.0508 14.664 0 4.0508 4.0547 4.0508 10.617 0 14.668zm-82.965 0-13.406 13.406 13.41 13.41c4.0508 4.0508 4.0508 10.613 0 14.664-2.0273 2.0273-4.6836 3.0391-7.3359 3.0391s-5.3086-1.0117-7.332-3.0391l-13.41-13.41-13.41 13.41c-2.0234 2.0273-4.6758 3.0391-7.3281 3.0391s-5.3086-1.0117-7.332-3.0391c-4.0508-4.0508-4.0508-10.613 0-14.664l13.406-13.41-13.41-13.41c-4.0508-4.0508-4.0508-10.613 0-14.664 4.0508-4.0508 10.613-4.0508 14.664 0l13.41 13.41 13.41-13.41c4.0508-4.0508 10.613-4.0508 14.664 0 4.0508 4.0547 4.0508 10.617 0 14.668zm165.93 0-13.406 13.406 13.41 13.41c4.0508 4.0508 4.0508 10.613 0 14.664-2.0273 2.0273-4.6836 3.0391-7.3359 3.0391s-5.3086-1.0117-7.332-3.0391l-13.406-13.41-13.41 13.41c-2.0273 2.0273-4.6797 3.0391-7.332 3.0391s-5.3086-1.0117-7.332-3.0391c-4.0508-4.0508-4.0508-10.613 0-14.664l13.406-13.41-13.41-13.41c-4.0508-4.0508-4.0508-10.613 0-14.664s10.613-4.0508 14.664 0l13.414 13.41 13.41-13.41c4.0508-4.0508 10.613-4.0508 14.664 0 4.0469 4.0547 4.0469 10.617-0.003906 14.668zm-273.07 228.91c1.9141 1.5312 4.1992 2.2773 6.4727 2.2773 3.0391 0 6.0508-1.332 8.1016-3.8906l16.453-20.551c5.1875 2.332 10.891 3.6992 16.934 3.6992 22.871 0 41.48-18.609 41.48-41.48 0-22.871-18.609-41.48-41.48-41.48-22.871 0-41.48 18.609-41.48 41.48 0 9.3164 3.1992 17.832 8.4023 24.762l-16.5 20.605c-3.5781 4.4727-2.8555 11 1.6172 14.578zm47.961-80.688c11.438 0 20.742 9.3008 20.742 20.742 0 11.438-9.3008 20.742-20.742 20.742-11.438 0-20.742-9.3008-20.742-20.742 0-11.441 9.3047-20.742 20.742-20.742zm62.223 41.48h197.04v-41.48h-197.04c-5.7266 0-10.371-4.6445-10.371-10.371 0-5.7266 4.6445-10.371 10.371-10.371h207.41c5.7305 0 10.371 4.6445 10.371 10.371v62.223c0 5.7266-4.6367 10.371-10.371 10.371h-207.41c-5.7266 0-10.371-4.6445-10.371-10.371 0-5.7266 4.6445-10.371 10.371-10.371zm10.371-10.371c-5.7266 0-10.371-4.6445-10.371-10.371 0-5.7266 4.6445-10.371 10.371-10.371h155.55c5.7305 0 10.371 4.6445 10.371 10.371 0 5.7266-4.6367 10.371-10.371 10.371z"/>
  <use x="70" y="715.554688" xlink:href="#n"/>
  <use x="108.054688" y="715.554688" xlink:href="#j"/>
  <use x="133.625" y="715.554688" xlink:href="#a"/>
  <use x="168.792969" y="715.554688" xlink:href="#i"/>
  <use x="203.78125" y="715.554688" xlink:href="#h"/>
  <use x="228.570312" y="715.554688" xlink:href="#a"/>
  <use x="263.734375" y="715.554688" xlink:href="#g"/>
  <use x="318.902344" y="715.554688" xlink:href="#f"/>
  <use x="356.019531" y="715.554688" xlink:href="#e"/>
  <use x="407.871094" y="715.554688" xlink:href="#d"/>
  <use x="450.433594" y="715.554688" xlink:href="#c"/>
  <use x="486.054688" y="715.554688" xlink:href="#b"/>
  <use x="508.613281" y="715.554688" xlink:href="#b"/>
  <use x="531.171875" y="715.554688" xlink:href="#m"/>
  <use x="548.945312" y="715.554688" xlink:href="#l"/>
  <use x="579.683594" y="715.554688" xlink:href="#c"/>
  <use x="615.304688" y="715.554688" xlink:href="#k"/>
 </g>
</svg>
