<?xml version="1.0" encoding="UTF-8"?>
<svg width="700pt" height="700pt" version="1.1" viewBox="0 0 700 700" xmlns="http://www.w3.org/2000/svg" xmlns:xlink="http://www.w3.org/1999/xlink">
 <defs>
  <symbol id="n" overflow="visible">
   <path d="m34.734-2.0781c-1.7812 0.92969-3.6484 1.625-5.5938 2.0938-1.9375 0.47656-3.9648 0.71875-6.0781 0.71875-6.293 0-11.281-1.7578-14.969-5.2812-3.6797-3.5195-5.5156-8.2891-5.5156-14.312 0-6.0508 1.8359-10.832 5.5156-14.344 3.6875-3.5195 8.6758-5.2812 14.969-5.2812 2.1133 0 4.1406 0.23438 6.0781 0.70312 1.9453 0.46875 3.8125 1.1719 5.5938 2.1094v7.8125c-1.8047-1.2266-3.5859-2.1289-5.3438-2.7031-1.75-0.57031-3.5938-0.85938-5.5312-0.85938-3.4805 0-6.2188 1.1172-8.2188 3.3438-1.9922 2.2305-2.9844 5.3047-2.9844 9.2188 0 3.8984 0.99219 6.9609 2.9844 9.1875 2 2.2305 4.7383 3.3438 8.2188 3.3438 1.9375 0 3.7812-0.28516 5.5312-0.85938 1.7578-0.57031 3.5391-1.4766 5.3438-2.7188z"/>
  </symbol>
  <symbol id="j" overflow="visible">
   <path d="m25.422-20.641c-0.79297-0.36328-1.5859-0.63281-2.375-0.8125-0.78125-0.17578-1.5703-0.26562-2.3594-0.26562-2.3359 0-4.1328 0.74609-5.3906 2.2344-1.25 1.4922-1.875 3.6328-1.875 6.4219v13.062h-9.0625v-28.359h9.0625v4.6562c1.1641-1.8516 2.5039-3.207 4.0156-4.0625 1.5078-0.85156 3.3164-1.2812 5.4219-1.2812 0.3125 0 0.64453 0.015625 1 0.046875 0.35156 0.023438 0.86328 0.074219 1.5312 0.15625z"/>
  </symbol>
  <symbol id="a" overflow="visible">
   <path d="m32.672-14.25v2.5781h-21.203c0.21875 2.125 0.98438 3.7188 2.2969 4.7812 1.3203 1.0625 3.1641 1.5938 5.5312 1.5938 1.9062 0 3.8594-0.28125 5.8594-0.84375s4.0547-1.4141 6.1719-2.5625v6.9844c-2.1484 0.8125-4.293 1.4219-6.4375 1.8281-2.1484 0.41406-4.293 0.625-6.4375 0.625-5.125 0-9.1094-1.3008-11.953-3.9062-2.8438-2.6133-4.2656-6.2734-4.2656-10.984 0-4.625 1.3945-8.2578 4.1875-10.906 2.7891-2.6562 6.6328-3.9844 11.531-3.9844 4.457 0 8.0234 1.3438 10.703 4.0312 2.6758 2.6875 4.0156 6.2773 4.0156 10.766zm-9.3281-3.0156c0-1.7266-0.50781-3.1172-1.5156-4.1719-1-1.0508-2.3086-1.5781-3.9219-1.5781-1.7617 0-3.1875 0.49609-4.2812 1.4844-1.0938 0.98047-1.7773 2.4023-2.0469 4.2656z"/>
  </symbol>
  <symbol id="i" overflow="visible">
   <path d="m17.062-12.766c-1.8867 0-3.3086 0.32422-4.2656 0.96875-0.94922 0.63672-1.4219 1.5781-1.4219 2.8281 0 1.1562 0.37891 2.0586 1.1406 2.7031 0.76953 0.64844 1.8359 0.96875 3.2031 0.96875 1.707 0 3.1445-0.60938 4.3125-1.8281 1.1641-1.2266 1.75-2.7578 1.75-4.5938v-1.0469zm13.859-3.4219v16.188h-9.1406v-4.2031c-1.2188 1.7188-2.5898 2.9766-4.1094 3.7656-1.5234 0.78125-3.3711 1.1719-5.5469 1.1719-2.9375 0-5.3242-0.85156-7.1562-2.5625-1.8242-1.7188-2.7344-3.9453-2.7344-6.6875 0-3.3203 1.1406-5.7578 3.4219-7.3125 2.2891-1.5508 5.8828-2.3281 10.781-2.3281h5.3438v-0.70312c0-1.4375-0.57031-2.4883-1.7031-3.1562-1.125-0.66406-2.8906-1-5.2969-1-1.9375 0-3.7461 0.19531-5.4219 0.57812-1.668 0.38672-3.2188 0.96875-4.6562 1.75v-6.9062c1.9453-0.47656 3.8984-0.83594 5.8594-1.0781 1.957-0.25 3.9141-0.375 5.875-0.375 5.1133 0 8.8047 1.0117 11.078 3.0312 2.2695 2.0117 3.4062 5.2891 3.4062 9.8281z"/>
  </symbol>
  <symbol id="h" overflow="visible">
   <path d="m14.25-36.406v8.0469h9.3438v6.4844h-9.3438v12.031c0 1.3125 0.25781 2.2031 0.78125 2.6719 0.53125 0.46094 1.5703 0.6875 3.125 0.6875h4.6562v6.4844h-7.7656c-3.5859 0-6.125-0.74219-7.625-2.2344-1.4922-1.5-2.2344-4.0352-2.2344-7.6094v-12.031h-4.5v-6.4844h4.5v-8.0469z"/>
  </symbol>
  <symbol id="g" overflow="visible">
   <path d="m23.656-24.203v-15.203h9.1094v39.406h-9.1094v-4.1094c-1.25 1.6797-2.6328 2.9062-4.1406 3.6875-1.5 0.76953-3.2344 1.1562-5.2031 1.1562-3.5 0-6.375-1.3828-8.625-4.1562-2.2422-2.7812-3.3594-6.3594-3.3594-10.734s1.1172-7.9453 3.3594-10.719c2.25-2.7812 5.125-4.1719 8.625-4.1719 1.957 0 3.6914 0.39844 5.2031 1.1875 1.5078 0.78125 2.8906 2 4.1406 3.6562zm-5.9844 18.359c1.9453 0 3.4297-0.70703 4.4531-2.125 1.0195-1.4258 1.5312-3.4883 1.5312-6.1875 0-2.6953-0.51172-4.7539-1.5312-6.1719-1.0234-1.4141-2.5078-2.125-4.4531-2.125-1.9297 0-3.4023 0.71094-4.4219 2.125-1.0234 1.418-1.5312 3.4766-1.5312 6.1719 0 2.6992 0.50781 4.7617 1.5312 6.1875 1.0195 1.418 2.4922 2.125 4.4219 2.125z"/>
  </symbol>
  <symbol id="f" overflow="visible">
   <path d="m19.453-5.8438c1.9375 0 3.4141-0.70703 4.4375-2.125 1.0195-1.4258 1.5312-3.4883 1.5312-6.1875 0-2.6953-0.51172-4.7539-1.5312-6.1719-1.0234-1.4141-2.5-2.125-4.4375-2.125-1.9492 0-3.4453 0.71484-4.4844 2.1406-1.0312 1.418-1.5469 3.4688-1.5469 6.1562s0.51562 4.7461 1.5469 6.1719c1.0391 1.4297 2.5352 2.1406 4.4844 2.1406zm-6.0312-18.359c1.25-1.6562 2.6328-2.875 4.1562-3.6562 1.5195-0.78906 3.2656-1.1875 5.2344-1.1875 3.5 0 6.3672 1.3906 8.6094 4.1719 2.25 2.7734 3.375 6.3438 3.375 10.719s-1.125 7.9531-3.375 10.734c-2.2422 2.7734-5.1094 4.1562-8.6094 4.1562-1.9688 0-3.7148-0.39062-5.2344-1.1719-1.5234-0.78906-2.9062-2.0156-4.1562-3.6719v4.1094h-9.0625v-39.406h9.0625z"/>
  </symbol>
  <symbol id="e" overflow="visible">
   <path d="m0.64062-28.359h9.0625l7.6094 19.25 6.4844-19.25h9.0781l-11.938 31.047c-1.1992 3.1562-2.5938 5.3594-4.1875 6.6094-1.5938 1.2578-3.6992 1.8906-6.3125 1.8906h-5.25v-5.9531h2.8438c1.5312 0 2.6445-0.24609 3.3438-0.73438 0.70703-0.49219 1.2539-1.3672 1.6406-2.625l0.25-0.78125z"/>
  </symbol>
  <symbol id="d" overflow="visible">
   <path d="m38.75-2.8125c-2.4375 1.1875-4.9648 2.0781-7.5781 2.6719-2.6172 0.58203-5.3203 0.875-8.1094 0.875-6.293 0-11.281-1.7578-14.969-5.2812-3.6797-3.5195-5.5156-8.2891-5.5156-14.312 0-6.0938 1.875-10.883 5.625-14.375 3.75-3.5 8.8789-5.25 15.391-5.25 2.5195 0 4.9297 0.23438 7.2344 0.70312 2.3008 0.46875 4.4727 1.1719 6.5156 2.1094v7.8125c-2.1055-1.1953-4.1992-2.0859-6.2812-2.6719-2.0859-0.59375-4.1719-0.89062-6.2656-0.89062-3.8867 0-6.8828 1.0859-8.9844 3.25-2.1055 2.168-3.1562 5.2734-3.1562 9.3125 0 4 1.0078 7.0898 3.0312 9.2656 2.0312 2.1797 4.9102 3.2656 8.6406 3.2656 1.0195 0 1.9609-0.0625 2.8281-0.1875 0.875-0.125 1.6562-0.32031 2.3438-0.59375v-7.3438h-5.9531v-6.5312h15.203z"/>
  </symbol>
  <symbol id="c" overflow="visible">
   <path d="m17.859-22.562c-2.0117 0-3.5469 0.72656-4.6094 2.1719-1.0547 1.4375-1.5781 3.5156-1.5781 6.2344s0.52344 4.8047 1.5781 6.25c1.0625 1.4375 2.5977 2.1562 4.6094 2.1562 1.9688 0 3.4727-0.71875 4.5156-2.1562 1.0508-1.4453 1.5781-3.5312 1.5781-6.25s-0.52734-4.7969-1.5781-6.2344c-1.043-1.4453-2.5469-2.1719-4.5156-2.1719zm0-6.4844c4.875 0 8.6797 1.3203 11.422 3.9531 2.75 2.6367 4.125 6.2812 4.125 10.938s-1.375 8.3047-4.125 10.938c-2.7422 2.6367-6.5469 3.9531-11.422 3.9531-4.8984 0-8.7266-1.3164-11.484-3.9531-2.7617-2.6328-4.1406-6.2812-4.1406-10.938s1.3789-8.3008 4.1406-10.938c2.7578-2.6328 6.5859-3.9531 11.484-3.9531z"/>
  </symbol>
  <symbol id="b" overflow="visible">
   <path d="m23.016-39.406v5.9531h-5.0156c-1.2812 0-2.1797 0.23438-2.6875 0.70312-0.5 0.46094-0.75 1.2656-0.75 2.4219v1.9688h7.75v6.4844h-7.75v21.875h-9.0625v-21.875h-4.5156v-6.4844h4.5156v-1.9688c0-3.0938 0.85938-5.3789 2.5781-6.8594 1.7188-1.4766 4.3828-2.2188 8-2.2188z"/>
  </symbol>
  <symbol id="m" overflow="visible">
   <path d="m4.3594-28.359h9.0625v28.359h-9.0625zm0-11.047h9.0625v7.4062h-9.0625z"/>
  </symbol>
  <symbol id="l" overflow="visible">
   <path d="m27.266-27.469v7.3906c-1.2305-0.84375-2.4648-1.4688-3.7031-1.875-1.2422-0.40625-2.5273-0.60938-3.8594-0.60938-2.5312 0-4.5078 0.74219-5.9219 2.2188-1.4062 1.4805-2.1094 3.543-2.1094 6.1875 0 2.6562 0.70312 4.7266 2.1094 6.2031 1.4141 1.4688 3.3906 2.2031 5.9219 2.2031 1.4141 0 2.7578-0.20703 4.0312-0.625 1.2812-0.42578 2.457-1.0508 3.5312-1.875v7.4219c-1.418 0.52344-2.8555 0.91016-4.3125 1.1719-1.4609 0.25781-2.9219 0.39062-4.3906 0.39062-5.1172 0-9.1172-1.3125-12-3.9375-2.8867-2.625-4.3281-6.2734-4.3281-10.953 0-4.6758 1.4414-8.3281 4.3281-10.953 2.8828-2.625 6.8828-3.9375 12-3.9375 1.4883 0 2.9531 0.13281 4.3906 0.39062 1.4453 0.26172 2.8828 0.65625 4.3125 1.1875z"/>
  </symbol>
  <symbol id="k" overflow="visible">
   <path d="m32.875-17.266v17.266h-9.125v-13.219c0-2.4453-0.058594-4.1328-0.17188-5.0625-0.10547-0.92578-0.29297-1.6094-0.5625-2.0469-0.35547-0.59375-0.83984-1.0508-1.4531-1.375-0.60547-0.33203-1.293-0.5-2.0625-0.5-1.8984 0-3.3867 0.73047-4.4688 2.1875-1.0742 1.4609-1.6094 3.4805-1.6094 6.0625v13.953h-9.0625v-28.359h9.0625v4.1562c1.3633-1.6562 2.8125-2.875 4.3438-3.6562 1.5391-0.78906 3.2383-1.1875 5.0938-1.1875 3.2812 0 5.7695 1.0078 7.4688 3.0156 1.6953 2.0117 2.5469 4.9336 2.5469 8.7656z"/>
  </symbol>
 </defs>
 <g>
  <path d="m204.89 321.55c-5.9023 6.6328-8.6953 15.496-7.6562 24.312l15.859 134.82c1.8477 15.66 15.133 27.469 30.898 27.469h212.01c15.77 0 29.051-11.809 30.898-27.477l15.859-134.82c1.0391-8.8164-1.7539-17.676-7.6562-24.312-5.8945-6.6289-14.367-10.434-23.242-10.434h-243.73c-8.875 0-17.348 3.8047-23.242 10.438zm274.71 13.785c1.9961 2.2422 2.9023 5.125 2.5508 8.1055l-15.859 134.81c-0.61328 5.2227-5.043 9.1602-10.297 9.1602h-212.01c-5.2578 0-9.6875-3.9414-10.301-9.1562l-15.859-134.82c-0.34766-2.9844 0.55859-5.8633 2.5508-8.1055 2-2.2422 4.75-3.4766 7.75-3.4766h243.73c3 0 5.75 1.2344 7.7461 3.4805zm-372.04 134.04c-16.301-19.566-21.156-46.633-12.684-70.637l41.062-116.35c6.957-19.707 22.078-35.465 41.48-43.234l64.82-25.938c-24.523-34.824-25.746-73.656-16.156-102.43 33.379-89.023 123.01-90.051 123.91-90.051s90.531 1.0273 123.79 89.691c9.6758 29.016 8.4805 67.934-16.039 102.78l64.828 25.941c19.402 7.7695 34.523 23.527 41.48 43.234l41.062 116.35c8.4727 24.008 3.6172 51.07-12.68 70.637l-10.551 12.652c-13.832 16.602-34.156 26.121-55.77 26.121h-10.191c-5.7266 0-10.371-4.6445-10.371-10.371 0-5.7266 4.6445-10.371 10.371-10.371h10.191c15.434 0 29.957-6.8008 39.836-18.656l10.547-12.652c11.637-13.977 15.109-33.309 9.0586-50.453l-41.062-116.35c-4.9727-14.082-15.773-25.34-29.633-30.887l-71.188-28.484c-9.832 10.023-21.855 19.496-36.684 27.969-1.6172 0.92578-3.3867 1.3633-5.1289 1.3633-3.6016 0-7.0977-1.875-9.0117-5.2266-2.8398-4.9727-1.1133-11.309 3.8594-14.148 80.316-45.898 60.102-114.82 57.527-122.53-28.113-74.945-103.35-75.871-104.22-75.875-3.1836 0.015626-76.281 1.3164-104.38 76.234-2.4453 7.3477-22.66 76.273 57.656 122.17 4.9727 2.8398 6.6992 9.1758 3.8594 14.148-1.918 3.3555-5.418 5.2266-9.0195 5.2266-1.7422 0-3.5156-0.44141-5.1328-1.3672-14.828-8.4727-26.852-17.949-36.688-27.969l-71.184 28.484c-13.859 5.5508-24.66 16.805-29.633 30.887l-41.062 116.35c-6.0508 17.145-2.5781 36.48 9.0625 50.453l10.543 12.652c9.8828 11.855 24.402 18.656 39.84 18.656h10.191c5.7266 0 10.371 4.6445 10.371 10.371 0 5.7266-4.6445 10.371-10.371 10.371h-10.191c-21.613 0-41.938-9.5195-55.766-26.117zm356.51 49.145c5.7266 0 10.371 4.6445 10.371 10.371s-4.6445 10.371-10.371 10.371l-228.15-0.003907c-5.7266 0-10.371-4.6445-10.371-10.371 0-5.7266 4.6445-10.371 10.371-10.371zm-114.07-165.93c22.871 0 41.48 18.609 41.48 41.48 0 19.293-13.242 35.551-31.109 40.172v22.051c0 5.7266-4.6445 10.371-10.371 10.371s-10.371-4.6445-10.371-10.371v-31.109c0-5.7266 4.6445-10.371 10.371-10.371 11.438 0 20.742-9.3008 20.742-20.742 0-11.438-9.3008-20.742-20.742-20.742-11.438 0-20.742 9.3008-20.742 20.742 0 5.7266-4.6445 10.371-10.371 10.371-5.7266 0-10.371-4.6445-10.371-10.371 0.003906-22.871 18.613-41.48 41.484-41.48zm62.125-200.34c-0.085938-5.2148-0.91016-10.25-2.3359-14.336-7.4297-19.84-21.391-33.426-41.414-40.141-10.273-3.3984-18.34-3.5078-18.422-3.5078 0.011719 0-8.0547 0.11328-18.371 3.5195-19.984 6.7031-33.945 20.289-41.457 40.355-1.3438 3.8594-2.168 8.8906-2.25 13.949-0.49609 15.941 5.293 38.398 35.645 55.75 4.9727 2.8477 6.6953 9.1797 3.8516 14.152-2.8398 4.9766-9.1758 6.6836-14.152 3.8516-41.363-23.656-46.625-56.672-46.078-74.25 0.11328-7.1562 1.3164-14.301 3.4805-20.504 12.289-32.867 36.363-46.934 54.41-52.992 13.473-4.4453 23.828-4.5742 24.969-4.5742s11.496 0.125 24.93 4.5742c18.086 6.0664 42.16 20.133 54.367 52.773 2.2422 6.4297 3.4492 13.574 3.5664 20.887 0.54297 17.418-4.7188 50.434-46.086 74.09-1.625 0.92578-3.3945 1.3672-5.1406 1.3672-3.6016 0-7.0977-1.875-9.0117-5.2188-2.8398-4.9727-1.1172-11.309 3.8516-14.152 30.352-17.355 36.141-39.812 35.648-55.594z"/>
  <use x="70" y="715.554688" xlink:href="#n"/>
  <use x="108.054688" y="715.554688" xlink:href="#j"/>
  <use x="133.625" y="715.554688" xlink:href="#a"/>
  <use x="168.792969" y="715.554688" xlink:href="#i"/>
  <use x="203.78125" y="715.554688" xlink:href="#h"/>
  <use x="228.570312" y="715.554688" xlink:href="#a"/>
  <use x="263.734375" y="715.554688" xlink:href="#g"/>
  <use x="318.902344" y="715.554688" xlink:href="#f"/>
  <use x="356.019531" y="715.554688" xlink:href="#e"/>
  <use x="407.871094" y="715.554688" xlink:href="#d"/>
  <use x="450.433594" y="715.554688" xlink:href="#c"/>
  <use x="486.054688" y="715.554688" xlink:href="#b"/>
  <use x="508.613281" y="715.554688" xlink:href="#b"/>
  <use x="531.171875" y="715.554688" xlink:href="#m"/>
  <use x="548.945312" y="715.554688" xlink:href="#l"/>
  <use x="579.683594" y="715.554688" xlink:href="#c"/>
  <use x="615.304688" y="715.554688" xlink:href="#k"/>
 </g>
</svg>
